<svg xmlns="http://www.w3.org/2000/svg" width="1080" height="1350" viewBox="0 0 1080 1350">
  <g fill="none" stroke-linecap="round" stroke-linejoin="round">
    <g opacity=".042" stroke="#07345b" stroke-width="13">
      <path d="M1000 808c-54 33-118 49-187 51v150c0 121 71 204 187 257 43-20 80-44 110-73"/>
      <path d="M905 1018h49l95-48v126l-95-48h-49z"/>
      <path d="M954 1048l22 62h48"/>
      <path d="M875 979l-37-24M868 1018h-45M875 1057l-37 24"/>
    </g>
    <g opacity=".06" stroke="#d8a61c" stroke-width="10">
      <circle cx="114" cy="272" r="68"/>
      <path d="m81 273 24 24 46-52"/>
    </g>
    <g opacity=".045" stroke="#0aa0a5" stroke-width="9">
      <path d="M37 183h122M37 215h75"/>
      <path d="M846 124h178M903 156h121"/>
    </g>
    <path opacity=".045" stroke="#07345b" stroke-width="3" stroke-dasharray="5 16" d="M66 648h948"/>
  </g>
</svg>
